<?xml version="1.0" encoding="utf-8"?>
<!-- Generator: Adobe Illustrator 26.1.0, SVG Export Plug-In . SVG Version: 6.00 Build 0)  -->
<svg version="1.1" id="Ebene_1" xmlns="http://www.w3.org/2000/svg" xmlns:xlink="http://www.w3.org/1999/xlink" x="0px" y="0px"
	 viewBox="0 0 700 700" style="enable-background:new 0 0 700 700;" xml:space="preserve">
<style type="text/css">
	.st0{fill:#FFFFFF;}
</style>
<g>
	<path class="st0" d="M528.9,347.3c-0.6-8.7-4.1-16.9-10-23.3L238.8,12.8h0C231.9,5.1,222.3,0.5,212-0.1c-10.3-0.5-20.4,3-28.1,9.9
		c-7.7,6.9-12.3,16.6-12.8,26.9c-0.5,10.3,3,20.4,9.9,28.1L437.7,350L181,635.2c-6.9,7.7-10.5,17.8-9.9,28.1
		c0.5,10.3,5.2,20,12.8,26.9c7.7,6.9,17.8,10.5,28.1,9.9c10.3-0.5,20-5.2,26.9-12.8L518.9,376h0C526,368.2,529.6,357.8,528.9,347.3
		L528.9,347.3z"/>
</g>
</svg>
