<?xml version="1.0" encoding="utf-8"?>
<!-- Generator: Adobe Illustrator 26.1.0, SVG Export Plug-In . SVG Version: 6.00 Build 0)  -->
<svg version="1.1" id="Ebene_1" xmlns="http://www.w3.org/2000/svg" xmlns:xlink="http://www.w3.org/1999/xlink" x="0px" y="0px"
	 viewBox="0 0 700 700" style="enable-background:new 0 0 700 700;" xml:space="preserve">
<style type="text/css">
	.st0{fill:#FFFFFF;}
</style>
<g>
	<path class="st0" d="M171.1,352.7c0.6,8.7,4.1,16.9,10,23.3l280.1,311.2l0,0c6.9,7.7,16.6,12.3,26.9,12.8s20.4-3,28.1-9.9
		s12.3-16.6,12.8-26.9c0.5-10.3-3-20.4-9.9-28.1L262.3,350L519,64.8c6.9-7.7,10.5-17.8,9.9-28.1c-0.5-10.3-5.2-20-12.8-26.9
		c-7.7-6.9-17.8-10.5-28.1-9.9c-10.3,0.5-20,5.2-26.9,12.8L181.1,324l0,0C174,331.8,170.4,342.2,171.1,352.7L171.1,352.7z"/>
</g>
</svg>
