<?xml version="1.0" encoding="utf-8"?>
<!-- Generator: Adobe Illustrator 26.3.1, SVG Export Plug-In . SVG Version: 6.00 Build 0)  -->
<svg version="1.1" id="Ebene_1" xmlns="http://www.w3.org/2000/svg" xmlns:xlink="http://www.w3.org/1999/xlink" x="0px" y="0px"
	 viewBox="0 0 700 700" style="enable-background:new 0 0 700 700;" xml:space="preserve">
<style type="text/css">
	.st0{fill-rule:evenodd;clip-rule:evenodd;fill:#FFFFFF;}
</style>
<path class="st0" d="M350,308.8L61.8,20.6C50.4,9.2,32,9.2,20.6,20.6l0,0C9.2,32,9.2,50.4,20.6,61.8L308.8,350L20.6,638.2
	c-11.4,11.4-11.4,29.8,0,41.2l0,0c11.4,11.4,29.8,11.4,41.2,0L350,391.2l288.2,288.2c11.4,11.4,29.8,11.4,41.2,0l0,0
	c11.4-11.4,11.4-29.8,0-41.2L391.2,350L679.4,61.8c11.4-11.4,11.4-29.8,0-41.2l0,0c-11.4-11.4-29.8-11.4-41.2,0L350,308.8z"/>
</svg>
