<?xml version="1.0" encoding="utf-8"?>
<!-- Generator: Adobe Illustrator 26.3.1, SVG Export Plug-In . SVG Version: 6.00 Build 0)  -->
<svg version="1.1" id="Ebene_1" xmlns="http://www.w3.org/2000/svg" xmlns:xlink="http://www.w3.org/1999/xlink" x="0px" y="0px"
	 viewBox="0 0 500 500" style="enable-background:new 0 0 500 500;" xml:space="preserve">
<g>
	<path d="M163,151.9l20.8,2.2c1.1,3.5,2.5,6.8,4.2,10.1l-13.2,16.2c-1.8,2.2-1.6,5.3,0.4,7.3l18.1,18.1c2,2,5.1,2.1,7.3,0.4
		l16.2-13.2c3.3,1.7,6.6,3.1,10.1,4.2l2.2,20.8c0.3,2.8,2.6,4.9,5.4,4.9h25.6c2.8,0,5.1-2.1,5.4-4.9l2.2-20.8
		c3.5-1.1,6.8-2.5,10.1-4.2l16.2,13.2c2.2,1.8,5.3,1.6,7.3-0.4l18.1-18.1c2-2,2.1-5.1,0.4-7.3l-13.2-16.2c1.7-3.3,3.1-6.7,4.2-10.1
		l20.8-2.2c2.8-0.3,4.9-2.6,4.9-5.4v-25.6c0-2.8-2.1-5.1-4.9-5.4l-20.8-2.2c-1.1-3.5-2.5-6.8-4.2-10.1L319.8,87
		c1.8-2.2,1.6-5.3-0.4-7.3l-18.1-18.1c-2-2-5.1-2.1-7.3-0.4l-16.2,13.2c-3.3-1.7-6.7-3.1-10.1-4.2l-2.2-20.8
		c-0.3-2.8-2.6-4.9-5.4-4.9h-25.6c-2.8,0-5.1,2.1-5.4,4.9l-2.2,20.8c-3.5,1.1-6.9,2.5-10.1,4.2l-16.2-13.2c-2.2-1.8-5.3-1.6-7.3,0.4
		l-18.1,18.1c-2,2-2.1,5.1-0.4,7.3l13.2,16.2c-1.7,3.3-3.1,6.6-4.2,10.1l-20.8,2.2c-2.8,0.3-4.9,2.6-4.9,5.4v25.6
		C158.2,149.3,160.3,151.6,163,151.9L163,151.9z M169,125.8l19.6-2c2.3-0.2,4.1-1.9,4.7-4.1c1.3-5,3.3-9.8,5.9-14.3
		c1.2-2,1-4.4-0.5-6.2L186.4,84l11.2-11.2l15.2,12.4c1.8,1.4,4.2,1.6,6.2,0.5c4.5-2.7,9.3-4.7,14.3-5.9c2.2-0.6,3.8-2.4,4.1-4.7
		l2-19.6h15.8l2,19.6c0.2,2.3,1.9,4.1,4.1,4.7c5,1.3,9.8,3.2,14.3,5.9c2,1.2,4.4,1,6.2-0.5L297,72.8L308.2,84l-12.4,15.2
		c-1.4,1.8-1.6,4.2-0.5,6.2c2.7,4.5,4.7,9.3,5.9,14.3c0.6,2.2,2.4,3.8,4.7,4.1l19.6,2v15.8l-19.6,2c-2.3,0.2-4.1,1.9-4.7,4.1
		c-1.3,5-3.2,9.8-5.9,14.3c-1.2,2-1,4.4,0.5,6.2l12.4,15.2L297,194.6l-15.2-12.4c-1.8-1.4-4.2-1.6-6.2-0.5
		c-4.5,2.7-9.3,4.7-14.3,5.9c-2.2,0.6-3.8,2.4-4.1,4.7l-2,19.6h-15.8l-2-19.6c-0.2-2.3-1.9-4.1-4.1-4.7c-5-1.3-9.8-3.3-14.3-5.9
		c-2-1.2-4.4-1-6.2,0.5l-15.2,12.4l-11.2-11.2l12.4-15.2c1.4-1.8,1.6-4.2,0.5-6.2c-2.7-4.5-4.7-9.3-5.9-14.3
		c-0.6-2.2-2.4-3.8-4.7-4.1l-19.6-2L169,125.8z"/>
	<path d="M247.3,174.5c22.5,0,40.8-18.3,40.8-40.8c0-22.5-18.3-40.8-40.8-40.8c-22.5,0-40.8,18.3-40.8,40.8
		C206.4,156.2,224.8,174.5,247.3,174.5L247.3,174.5z M247.3,103.8c16.5,0,29.9,13.4,29.9,30c0,16.5-13.4,29.9-29.9,29.9
		c-16.5,0-30-13.4-30-29.9C217.3,117.2,230.8,103.8,247.3,103.8z"/>
	<path d="M258.1,418.5c0,6-4.9,10.9-10.9,10.9c-6,0-10.9-4.9-10.9-10.9c0-6,4.9-10.9,10.9-10.9C253.3,407.6,258.1,412.5,258.1,418.5
		"/>
	<path d="M448.4,467.4H394c-3,0-5.4,2.4-5.4,5.4c0,3,2.4,5.4,5.4,5.4h54.3c3,0,5.4-2.4,5.4-5.4C453.8,469.8,451.4,467.4,448.4,467.4
		z"/>
	<path d="M100.5,467.4H46.2c-3,0-5.4,2.4-5.4,5.4c0,3,2.4,5.4,5.4,5.4h54.3c3,0,5.4-2.4,5.4-5.4C106,469.8,103.5,467.4,100.5,467.4
		L100.5,467.4z"/>
	<path d="M458.5,97.8h-69.9V16.3c0-3-2.4-5.4-5.4-5.4l-271.7,0c-3,0-5.4,2.4-5.4,5.4v81.5l-69.9,0c-18.4,0-33.3,15-33.3,33.3v292
		c0,18.4,15,33.3,33.3,33.3h113.4c-3.4,4.5-5.4,10.2-5.4,16.3c0,15,12.2,27.2,27.2,27.2h152.2c15,0,27.2-12.2,27.2-27.2
		c0-6.1-2-11.8-5.4-16.3h113.4c18.4,0,33.3-15,33.3-33.3v-292C491.9,112.8,476.9,97.8,458.5,97.8L458.5,97.8z M404.9,260.9
		c3,0,5.4-2.4,5.4-5.4V141.3h10.9v54.3c0,3,2.4,5.4,5.4,5.4c3,0,5.4-2.4,5.4-5.4v-54.3h16.3v239.1h-59.8l0-239.1h10.9v114.1
		C399.5,258.4,401.9,260.9,404.9,260.9L404.9,260.9z M116.8,21.8h260.9v358.7H116.8V21.8z M46.2,380.4v-16.3h32.6
		c3,0,5.4-2.4,5.4-5.4c0-3-2.4-5.4-5.4-5.4l-32.6,0v-212H106v239.1L46.2,380.4z M339.7,472.8c0,9-7.3,16.3-16.3,16.3l-152.2,0
		c-9,0-16.3-7.3-16.3-16.3c0-9,7.3-16.3,16.3-16.3h152.2C332.4,456.5,339.7,463.8,339.7,472.8L339.7,472.8z M481,423.2
		c0,12.4-10.1,22.5-22.5,22.5H36c-12.4,0-22.5-10.1-22.5-22.5l0-292c0-12.4,10.1-22.5,22.5-22.5l69.9,0v21.7l-65.2,0
		c-3,0-5.4,2.4-5.4,5.4v250c0,3,2.4,5.4,5.4,5.4h413c3,0,5.4-2.4,5.4-5.4l0-250c0-3-2.4-5.4-5.4-5.4h-65.2v-21.7h69.9
		c12.4,0,22.5,10.1,22.5,22.5L481,423.2z"/>
	<path d="M78.8,13.6c0,4.5-3.7,8.2-8.1,8.2c-4.5,0-8.2-3.7-8.2-8.2s3.7-8.2,8.2-8.2C75.2,5.4,78.8,9.1,78.8,13.6"/>
	<path d="M415.8,73.4c0,4.5-3.7,8.2-8.2,8.2s-8.2-3.7-8.2-8.2c0-4.5,3.7-8.2,8.2-8.2S415.8,68.9,415.8,73.4"/>
	<path d="M432.1,212c0,7.2-10.9,7.2-10.9,0C421.2,204.7,432.1,204.7,432.1,212"/>
	<path d="M497.3,57.1c0,4.5-3.7,8.1-8.2,8.1c-4.5,0-8.2-3.6-8.2-8.1s3.7-8.2,8.2-8.2C493.6,48.9,497.3,52.6,497.3,57.1"/>
	<path d="M138.6,277.2H356c3,0,5.4-2.4,5.4-5.4c0-3-2.4-5.4-5.4-5.4l-217.4,0c-3,0-5.4,2.4-5.4,5.4
		C133.2,274.8,135.6,277.2,138.6,277.2L138.6,277.2z"/>
	<path d="M138.6,255.4H356c3,0,5.4-2.4,5.4-5.4s-2.4-5.4-5.4-5.4H138.6c-3,0-5.4,2.4-5.4,5.4C133.2,253,135.6,255.4,138.6,255.4
		L138.6,255.4z"/>
	<path d="M138.6,298.9H356c3,0,5.4-2.4,5.4-5.4c0-3-2.4-5.4-5.4-5.4l-217.4,0c-3,0-5.4,2.4-5.4,5.4S135.6,298.9,138.6,298.9
		L138.6,298.9z"/>
	<path d="M138.6,320.7H356c3,0,5.4-2.4,5.4-5.4s-2.4-5.4-5.4-5.4l-217.4,0c-3,0-5.4,2.4-5.4,5.4
		C133.2,318.2,135.6,320.7,138.6,320.7L138.6,320.7z"/>
	<path d="M138.6,342.4H356c3,0,5.4-2.4,5.4-5.4s-2.4-5.4-5.4-5.4l-217.4,0c-3,0-5.4,2.4-5.4,5.4C133.2,340,135.6,342.4,138.6,342.4
		L138.6,342.4z"/>
	<path d="M51.6,81.5c12,0,21.7-9.8,21.7-21.7s-9.8-21.7-21.7-21.7s-21.7,9.8-21.7,21.7S39.6,81.5,51.6,81.5z M51.6,48.9
		c6,0,10.9,4.9,10.9,10.9s-4.9,10.9-10.9,10.9s-10.9-4.9-10.9-10.9S45.6,48.9,51.6,48.9z"/>
	<path d="M445.6,59.8c16.5,0,29.9-13.4,29.9-29.9S462.1,0,445.6,0c-16.5,0-29.9,13.4-29.9,29.9C415.8,46.4,429.2,59.8,445.6,59.8z
		 M445.6,10.9c10.5,0,19,8.5,19,19c0,10.5-8.5,19-19,19c-10.5,0-19-8.5-19-19C426.6,19.4,435.2,10.9,445.6,10.9z"/>
</g>
</svg>
