<?xml version="1.0" encoding="utf-8"?>
<!-- Generator: Adobe Illustrator 26.3.1, SVG Export Plug-In . SVG Version: 6.00 Build 0)  -->
<svg version="1.1" id="Ebene_1" xmlns="http://www.w3.org/2000/svg" xmlns:xlink="http://www.w3.org/1999/xlink" x="0px" y="0px"
	 viewBox="0 0 500 500" style="enable-background:new 0 0 500 500;" xml:space="preserve">
<g>
	<path d="M494.5,477.8h-37.9c24.3-18.6,26.2-54,5.1-75.1L342.9,283.8c39.9-71.4,27.7-160.9-30.5-219
		c-34.6-34.6-80.7-53.7-129.6-53.7C83.7,11.1,0.8,89.8,0,193c-0.8,104.7,82.9,184.8,182.7,184.8c31.4,0,62.2-8,89.4-23.2
		C397.7,479.9,390.8,473.8,396,477.8l-123.8,0c-3.1,0-5.6,2.5-5.6,5.6c0,3.1,2.5,5.6,5.6,5.6h222.2c3.1,0,5.6-2.5,5.6-5.6
		C500,480.3,497.5,477.8,494.5,477.8L494.5,477.8z M308.4,375.2l55-55l15.7,15.7l-55,55L308.4,375.2z M270.2,342.8
		c-26.4,15.6-56.7,23.8-87.5,23.8c-93.7,0-172.4-75.1-171.6-173.6C11.9,94.8,91,22.2,182.7,22.2c46,0,89.3,17.9,121.8,50.4
		c55.6,55.6,66.6,141.7,26.6,209.3c-1.3,2.2-0.9,5,0.9,6.8l23.6,23.6l-55,55L277,343.7C275.2,341.9,272.4,341.6,270.2,342.8
		L270.2,342.8z M332,398.7l55-55l66.8,66.8c15.2,15.2,15.2,39.8,0,55c-15.2,15.2-39.8,15.2-55,0L332,398.7z"/>
	<path d="M61.1,394.5c-12.3,0-22.2,10-22.2,22.2c0,12.3,10,22.2,22.2,22.2s22.2-10,22.2-22.2C83.3,404.4,73.4,394.5,61.1,394.5z
		 M61.1,427.8c-6.1,0-11.1-5-11.1-11.1c0-6.1,5-11.1,11.1-11.1s11.1,5,11.1,11.1C72.2,422.8,67.2,427.8,61.1,427.8z"/>
	<path d="M427.8,177.8c18.4,0,33.3-15,33.3-33.3s-15-33.3-33.3-33.3c-18.4,0-33.3,15-33.3,33.3S409.4,177.8,427.8,177.8z
		 M427.8,122.2c12.3,0,22.2,10,22.2,22.2s-10,22.2-22.2,22.2s-22.2-10-22.2-22.2C405.6,132.2,415.5,122.2,427.8,122.2z"/>
	<path d="M272.2,413.9c0,4.6-3.7,8.3-8.3,8.3s-8.3-3.7-8.3-8.3s3.7-8.3,8.3-8.3S272.2,409.3,272.2,413.9"/>
	<path d="M144.4,447.2c0,4.6-3.7,8.3-8.3,8.3c-4.6,0-8.3-3.7-8.3-8.3s3.7-8.3,8.3-8.3C140.7,438.9,144.4,442.6,144.4,447.2"/>
	<path d="M416.7,252.8c0,4.6-3.7,8.3-8.3,8.3c-4.6,0-8.3-3.7-8.3-8.3c0-4.6,3.7-8.3,8.3-8.3C412.9,244.4,416.7,248.2,416.7,252.8"/>
	<path d="M394.5,52.8c0,4.6-3.7,8.3-8.3,8.3s-8.3-3.7-8.3-8.3s3.7-8.3,8.3-8.3S394.5,48.2,394.5,52.8"/>
	<path d="M38.9,36.1c0,4.6-3.7,8.3-8.3,8.3s-8.3-3.7-8.3-8.3s3.7-8.3,8.3-8.3C35.1,27.8,38.9,31.5,38.9,36.1"/>
	<path d="M27.8,352.8c0,4.6-3.7,8.3-8.3,8.3s-8.3-3.7-8.3-8.3c0-4.6,3.7-8.3,8.3-8.3S27.8,348.2,27.8,352.8"/>
	<path d="M321.6,194.5c0-76.6-62.3-138.9-138.9-138.9c-76.6,0-138.9,62.3-138.9,138.9c0,76.6,62.3,138.9,138.9,138.9
		C259.3,333.3,321.6,271,321.6,194.5z M182.7,322.2c-70.5,0-127.8-57.3-127.8-127.8S112.3,66.7,182.7,66.7
		c54.3,0,100.7,34,119.2,81.8h-34.9c-1-2.8-2.2-5.5-3.5-8.1h14.2c3.1,0,5.6-2.5,5.6-5.6c0-3.1-2.5-5.6-5.6-5.6h-20.6
		c-1.9-2.8-4-5.5-6.2-8.1h4.6c3.1,0,5.6-2.5,5.6-5.6c0-3.1-2.5-5.6-5.6-5.6h-15.7c-15.9-13.3-36.4-21.3-58.7-21.3
		c-50.5,0-91.6,41.1-91.6,91.6c0,36.4,22.1,69.7,55.3,84.1v13.9c-1.8,0.9-3,2.8-3,4.9V300c0,3.1,2.5,5.6,5.6,5.6h67.4
		c3.1,0,5.6-2.5,5.6-5.6v-16.9c0-2.1-1.2-4-3-4.9v-13.9c39.3-17,63.2-60.6,52.9-104.7h35.3c3.1,11.1,4.8,22.8,4.8,34.9
		C310.5,264.9,253.2,322.2,182.7,322.2L182.7,322.2z M133,159.6h125.9c10.7,40.3-11.5,81.4-49,95.8c-2.1,0.8-3.6,2.9-3.6,5.2v16.9
		h-10v-62.3c13.3,6.7,28.9-3.2,28.9-17.9c0-11-9-20-20-20c-11,0-20,9-20,20v80.2h-8.1v-80.2c0-11-9-20-20-20c-11,0-20,9-20,20
		c0,14.8,15.6,24.5,28.9,17.9v62.3h-10v-16.9c0-2.3-1.4-4.4-3.6-5.2c-30.9-11.8-51.7-42-51.7-75.2c0-44.4,36.1-80.5,80.5-80.5
		c14.2,0,27.6,3.7,39.2,10.2h-53.6c-3.1,0-5.6,2.5-5.6,5.6c0,3.1,2.5,5.6,5.6,5.6h68.9c2.7,2.5,5.3,5.3,7.7,8.1h-62.2
		c-3.1,0-5.6,2.5-5.6,5.6c0,3.1,2.5,5.6,5.6,5.6H251c1.5,2.6,2.9,5.3,4.1,8.1H133c-3.1,0-5.6,2.5-5.6,5.6
		C127.5,157.1,130,159.6,133,159.6L133,159.6z M153,288.7h56.3v5.8H153V288.7z M196.3,197.4c0-4.9,4-8.9,8.9-8.9s8.9,4,8.9,8.9
		c0,4.9-4,8.9-8.9,8.9C200.3,206.2,196.3,202.3,196.3,197.4z M166,197.4c0,4.9-4,8.9-8.9,8.9c-4.9,0-8.9-4-8.9-8.9
		c0-4.9,4-8.9,8.9-8.9S166,192.5,166,197.4z"/>
</g>
</svg>
