<?xml version="1.0" encoding="utf-8"?>
<!-- Generator: Adobe Illustrator 26.3.1, SVG Export Plug-In . SVG Version: 6.00 Build 0)  -->
<svg version="1.1" id="Ebene_1" xmlns="http://www.w3.org/2000/svg" xmlns:xlink="http://www.w3.org/1999/xlink" x="0px" y="0px"
	 viewBox="0 0 500 500" style="enable-background:new 0 0 500 500;" xml:space="preserve">
<g>
	<path d="M250,436.1c-11.7,0-21.3,9.5-21.3,21.3s9.5,21.3,21.3,21.3c11.7,0,21.3-9.5,21.3-21.3C271.3,445.6,261.7,436.1,250,436.1z
		 M250,468c-5.9,0-10.6-4.8-10.6-10.6c0-5.9,4.8-10.6,10.6-10.6s10.6,4.8,10.6,10.6C260.6,463.2,255.9,468,250,468z"/>
	<path d="M265.9,32h-32.3c-2.9,0-5.3,2.4-5.3,5.3c0,2.9,2.4,5.3,5.3,5.3l32.3,0c2.9,0,5.3-2.4,5.3-5.3C271.3,34.4,268.9,32,265.9,32
		z"/>
	<path d="M37.3,319.1c-14.7,0-26.6,11.9-26.6,26.6s11.9,26.6,26.6,26.6s26.6-11.9,26.6-26.6C63.9,331,52,319.1,37.3,319.1z
		 M37.3,361.6c-8.8,0-15.9-7.2-15.9-15.9c0-8.8,7.2-15.9,15.9-15.9s15.9,7.2,15.9,15.9S46.1,361.6,37.3,361.6z"/>
	<path d="M489.2,159.6c0-17.6-14.3-31.9-31.9-31.9c-17.6,0-31.9,14.3-31.9,31.9c0,17.6,14.3,31.9,31.9,31.9
		C474.9,191.5,489.2,177.2,489.2,159.6L489.2,159.6z M457.3,180.9c-11.7,0-21.3-9.5-21.3-21.3c0-11.7,9.5-21.3,21.3-21.3
		c11.7,0,21.3,9.5,21.3,21.3C478.6,171.3,469.1,180.9,457.3,180.9z"/>
	<path d="M345.3,0.1h-191c-26.6,0-48.2,21.6-48.2,48.2v403.3c0,26.6,21.6,48.2,48.2,48.2h191c26.6,0,48.2-21.6,48.2-48.2l0-403.3
		C393.5,21.7,371.9,0.1,345.3,0.1L345.3,0.1z M382.9,414.8H116.7V149h80.1c2.9,0,5.3-2.4,5.3-5.3c0-2.9-2.4-5.3-5.3-5.3h-80.1v-10.6
		l26.9,0c2.9,0,5.3-2.4,5.3-5.3c0-2.9-2.4-5.3-5.3-5.3h-26.9V74.6l266.2,0V414.8z M345.3,489.2h-191c-20.7,0-37.6-16.9-37.6-37.6
		v-26.2l266.2,0v26.2C382.9,472.4,366.1,489.2,345.3,489.2L345.3,489.2z M382.9,63.9H116.7V48.3c0-20.7,16.9-37.6,37.6-37.6h191
		c20.7,0,37.6,16.9,37.6,37.6L382.9,63.9z"/>
	<path d="M345.7,207.5H154.3c-2.9,0-5.3,2.4-5.3,5.3c0,147-0.1,138.5,0.1,139.4c0.6,2.5,2.8,4.1,5.2,4.1h191.4
		c2.9,0,5.3-2.4,5.3-5.3l0-138.2C351,209.9,348.6,207.5,345.7,207.5L345.7,207.5z M340.4,218.1v121l-50-53.4c-2.1-2.2-5.7-2.2-7.8,0
		l-33.3,35.6l-33.3-35.6c-2.1-2.2-5.7-2.2-7.8,0l-48.6,51.9V218.1L340.4,218.1z M272.1,345.7l-15.6-16.6l29.9-32l45.5,48.6H272.1z
		 M166.6,345.7l45.5-48.6l45.5,48.6H166.6z"/>
	<path d="M258,281.9c13.2,0,23.9-10.7,23.9-23.9c0-13.2-10.7-23.9-23.9-23.9c-13.2,0-23.9,10.7-23.9,23.9S244.8,281.9,258,281.9z
		 M258,244.7c7.3,0,13.3,6,13.3,13.3s-6,13.3-13.3,13.3s-13.3-6-13.3-13.3S250.6,244.7,258,244.7z"/>
	<path d="M347.8,186.2H152.2c-13.5,0-24.5,11-24.5,24.5v142.5c0,13.5,11,24.5,24.5,24.5h195.6c13.5,0,24.5-11,24.5-24.5l0-142.5
		C372.3,197.2,361.3,186.2,347.8,186.2L347.8,186.2z M361.6,353.1c0,7.6-6.2,13.8-13.8,13.8H152.2c-7.6,0-13.8-6.2-13.8-13.8V210.7
		c0-7.6,6.2-13.8,13.8-13.8h195.6c7.6,0,13.8,6.2,13.8,13.8L361.6,353.1z"/>
	<path d="M42.6,103.8c0,4.4-3.6,8-8,8s-8-3.6-8-8s3.6-8,8-8S42.6,99.4,42.6,103.8"/>
	<path d="M218.1,143.7c0,7.1-10.6,7.1-10.6,0S218.1,136.6,218.1,143.7"/>
	<path d="M69.2,236.7c0,4.4-3.6,8-8,8s-8-3.6-8-8s3.6-8,8-8C65.7,228.7,69.2,232.3,69.2,236.7"/>
	<path d="M441.4,82.5c0,4.4-3.6,8-8,8c-4.4,0-8-3.6-8-8c0-4.4,3.6-8,8-8C437.8,74.6,441.4,78.1,441.4,82.5"/>
	<path d="M483.9,258c0,4.4-3.6,8-8,8c-4.4,0-8-3.6-8-8s3.6-8,8-8C480.4,250,483.9,253.6,483.9,258"/>
	<path d="M436.1,390.9c0,4.4-3.6,8-8,8c-4.4,0-8-3.6-8-8s3.6-8,8-8C432.5,382.9,436.1,386.5,436.1,390.9"/>
	<path d="M74.6,422.8c0,4.4-3.6,8-8,8c-4.4,0-8-3.6-8-8s3.6-8,8-8C71,414.8,74.6,418.4,74.6,422.8"/>
	<path d="M351,159.6c11.7,0,21.3-9.5,21.3-21.3s-9.5-21.3-21.3-21.3c-11.7,0-21.3,9.5-21.3,21.3C329.7,150.1,339.3,159.6,351,159.6z
		 M351,127.7c5.9,0,10.6,4.8,10.6,10.6S356.9,149,351,149c-5.9,0-10.6-4.8-10.6-10.6C340.4,132.5,345.2,127.7,351,127.7z"/>
	<path d="M303.2,159.6c11.7,0,21.3-9.5,21.3-21.3s-9.5-21.3-21.3-21.3c-11.7,0-21.3,9.5-21.3,21.3
		C281.9,150.1,291.4,159.6,303.2,159.6z M303.2,127.7c5.9,0,10.6,4.8,10.6,10.6S309,149,303.2,149c-5.9,0-10.6-4.8-10.6-10.6
		C292.5,132.5,297.3,127.7,303.2,127.7z"/>
	<path d="M255.3,159.6c11.7,0,21.3-9.5,21.3-21.3s-9.5-21.3-21.3-21.3s-21.3,9.5-21.3,21.3C234,150.1,243.6,159.6,255.3,159.6z
		 M255.3,127.7c5.9,0,10.6,4.8,10.6,10.6s-4.8,10.6-10.6,10.6c-5.9,0-10.6-4.8-10.6-10.6C244.7,132.5,249.4,127.7,255.3,127.7z"/>
</g>
</svg>
