<?xml version="1.0" encoding="utf-8"?>
<!-- Generator: Adobe Illustrator 26.3.1, SVG Export Plug-In . SVG Version: 6.00 Build 0)  -->
<svg version="1.1" id="Ebene_1" xmlns="http://www.w3.org/2000/svg" xmlns:xlink="http://www.w3.org/1999/xlink" x="0px" y="0px"
	 viewBox="0 0 1000 1000" style="enable-background:new 0 0 1000 1000;" xml:space="preserve">
<style type="text/css">
	.st0{fill:#4285F9;}
	.st1{fill:#9ABDFC;}
	.st2{fill:#669DFB;}
	.st3{fill:#B5CFFC;}
	.st4{fill:#699EFB;}
	.st5{fill:#5C96FB;}
	.st6{fill:#5B95FB;}
	.st7{fill:#BAD2FD;}
	.st8{fill:#4079DE;}
	.st9{fill:#FEFEFE;}
	.st10{fill:#407ADE;}
</style>
<g>
	<path class="st0" d="M3.3,507.5c0-0.9,0-1.7,0-2.6c0.7-2,0.7-4.1,0-6.1c0-1.7,0-3.5,0-5.2c0.7-1.7,0.7-3.5,0-5.2c0-1.2,0-2.3,0-3.5
		c0.8-2.5,0.8-5.1,1-7.7c0.7-13,7.4-23.7,13.6-34.4c15.9-27.5,31.7-55,47.6-82.5c13.5-23.5,27.1-47,40.7-70.5
		c14.9-25.9,29.8-51.8,44.7-77.6c13.6-23.5,27.1-47,40.6-70.5c8.2-14.2,16.3-28.4,24.6-42.6C228.5,78,245.9,62.9,269.6,56
		c6.5-1.9,13.4-2,20.3-2.1c1.8,0,3.5,0,5.3,0c136.2,0,272.3,0,408.5,0c1.8,0,3.5,0,5.3,0c22.7-0.7,41.2,8.4,57.3,23.8
		c9.6,9.2,16.1,20.4,22.6,31.7c13.8,23.9,27.5,47.8,41.3,71.6c13.6,23.5,27.1,47,40.7,70.5c13.8,23.9,27.5,47.7,41.3,71.6
		c12.8,22.2,25.6,44.5,38.4,66.8c11.1,19.2,22,38.5,33.3,57.6c6.8,11.5,11.3,23.4,11.3,36.9c0,0.4,0.1,0.8,0.4,1.2
		c0,1.2,0,2.3,0,3.5c-0.7,1.7-0.7,3.5,0,5.2c0,1.2,0,2.3,0,3.5c-0.9,1.7-0.2,3.5-0.4,5.3c0,1.3,0,2.7,0,4
		c0.2,12.8-3.7,24.5-10.1,35.5c-11.9,20.3-23.5,40.7-35.3,61c-1,1.8-1.9,3.7-4.1,4.2c-1.9,0.3-3.3-0.7-4.6-1.9
		c-1.7-1.6-3.3-3.2-5-4.9c-67.8-67.8-135.7-135.6-203.5-203.5c-2.4-2.4-4-5.8-7.8-6.6c-2.2-0.9-4.6-0.7-6.9-0.7
		c-34.8,0-69.6,0-104.4,0c-1.4,0-2.9,0-4.3,0.2c-2.5,0.3-4.2,1.7-4.2,4.2c-0.1,11.4-1,22.9,0.5,34.3c0.3,2.3,2,3.6,3.5,5.1
		c12,12.1,24.5,23.7,35.9,36.4c0.3,0.3,0.4,0.8,0.5,1.2c0.4,3.9,0.7,7.7-0.3,11.5c-1.4,2.1-3.1,1.7-4.9,0.4c-1.4-1-2.6-2.3-3.8-3.6
		c-19.4-19.3-38.7-38.8-58.1-58.1c-2.3-2.2-4.7-4.4-6.3-7.1c-1.4-2.3-3.9-2.8-6-4c-5.9-7.7-12.6-14.4-22-17.8
		c-4.6-1.7-9.4-2.8-14.4-2.8c-12.3,0.1-24.7,0-37,0c-24.8,0.1-44.1,19-44.6,43.9c-0.2,6.7,0,13.3-0.1,20c0,2,0.2,4.1-0.9,5.9
		c-2.7,2.4-4.5,0.2-6.2-1.4c-8.2-8-16.3-16.1-24.3-24.3c-6.8-6.9-14.2-13.3-20.1-21.1c-1.5-2-4.1-2.1-5.8-3.6
		c-7.6-9.9-17.1-16.8-29.7-18.9c-2-0.3-4-0.4-6.1-0.4c-12.8,0-25.5-0.1-38.3,0c-22.9,0.2-42.7,19.8-42.7,42.6
		c-0.1,54.4-0.1,108.8,0,163.2c0,1.9,0,3.8,0.6,5.6c0.5,1.2,0.7,2.4,1.7,3.4c47,45.8,93,92.6,139.4,139
		c56.1,56,112.1,112.1,168.2,168.1c6.6,6.6,13.2,13.1,19.7,19.7c2.9,3,5.9,4.1,10,4.1c29.9-0.1,59.8-0.1,89.7,0
		c2.5,0,5.7-1.2,7.1,2.4c-0.6,1.9-2.2,2.1-3.8,2.3c-2.2,0.2-4.4,0.1-6.5,0.1c-133.1,0-266.2,0-399.3,0c-22,0-42.1-5.7-59.8-19
		c-11.3-8.5-19.7-19.5-26.7-31.7c-17.3-30.2-34.8-60.3-52.1-90.5c-17.9-31-35.8-62.1-53.7-93.1c-22.9-39.9-46-79.7-68.9-119.5
		c-9.7-16.9-19.7-33.5-28.9-50.6c-4.6-8.5-6.2-17.7-6.7-27.2C3.7,508.5,3.7,508,3.3,507.5z"/>
	<path class="st1" d="M704.7,54.3c-1.6,0-3.2,0.1-4.8,0.1c-133.6,0-267.3,0-400.9,0c-1.6,0-3.2-0.1-4.8-0.1c-0.6-0.3-0.6-0.5,0-0.7
		c136.8,0,273.6,0,410.4,0C705.3,53.8,705.3,54,704.7,54.3z"/>
	<path class="st2" d="M3.3,498.8c1.1,2,1.5,4.1,0,6.1C3.3,502.8,3.3,500.8,3.3,498.8z"/>
	<path class="st3" d="M294.3,53.6c0,0.2,0,0.5,0,0.7c-1.8,0-3.5,0-5.3,0c0-0.2,0.1-0.5,0.1-0.8C290.8,53.6,292.6,53.6,294.3,53.6z"
		/>
	<path class="st3" d="M704.7,54.3c0-0.2,0-0.5,0-0.7c1.7,0,3.5,0,5.2,0c0,0.3,0,0.5,0.1,0.8C708.2,54.3,706.5,54.3,704.7,54.3z"/>
	<path class="st4" d="M3.3,488.3c1.3,1.7,1,3.5,0,5.2C3.3,491.8,3.3,490.1,3.3,488.3z"/>
	<path class="st5" d="M995.7,494.4c-1.1-1.7-1.3-3.5,0-5.2C995.7,490.9,995.7,492.7,995.7,494.4z"/>
	<path class="st6" d="M995,503.3c-0.1-1.9-0.5-3.8,0.7-5.4c0,1.7,0,3.5,0,5.2C995.6,503.5,995.3,503.6,995,503.3z"/>
	<path class="st7" d="M995,503.3c0.3,0,0.5-0.1,0.7-0.2c0,1.5,0,2.9,0,4.4l-0.4,0.1l-0.4,0C995,506.1,995,504.7,995,503.3z"/>
	<path class="st8" d="M945.4,606.9c-1.7,4.6-4.6,8.7-7.1,12.9c-52.3,90.7-104.6,181.3-156.8,272c-13.5,23.4-33,38.4-59.4,44.5
		c-4,0.9-7.9,1.6-12,1.6c-32.4,0-64.7-0.2-97.1,0c-4.4,0-7.6-1.2-10.7-4.4C493.6,824.8,384.9,716.1,276.1,607.3
		c-1.2-1.2-2.4-2.6-3.5-3.8c1.4-2.7,4-2.1,6.2-2.1c8.7-0.2,17.4,0,26.1-0.1c6.2-0.1,7.4-1.2,7.4-7.4c0.1-22.5,0-45,0-67.5
		c0-10.1,0.4-10.4,10.6-10.5c9.6,0,19.2-0.1,28.7,0.1c6.3,0.1,7.4,1.1,7.4,7.5c0.2,22.6,0,45.3,0.1,67.9c0,9.4,0.5,9.9,9.7,9.9
		c7.3,0,14.5,0.1,21.8,0c5.7-0.1,6.9-1.3,7-7c0.1-19.7,0-39.5,0-59.2c0-33.2-0.1-66.5,0-99.7c0-7.3-1.1-14.1-4.4-20.6
		c-0.9-1.8-1.9-3.7-0.6-5.7c2-0.3,2.7,1.5,3.8,2.5c15.1,15,30.2,30.1,45.3,45.2c1.3,1.3,2.8,2.5,4.2,3.8c2.3,1.2,1.9,3.4,2,5.4
		c0.2,6.1,0.1,12.2,0.1,18.3c0,35.7,0,71.4,0,107.1c0,1.7,0,3.5,0.1,5.2c0.2,2.9,1.6,4.7,4.6,4.7c9.7,0.2,19.4,0.2,29.2,0
		c3-0.1,4.4-1.8,4.6-4.7c0.1-1.6,0.1-3.2,0.1-4.8c0-21.2,0-42.4,0-63.6c0-1.9,0-3.8,0.1-5.7c0.3-5.2,1.4-6.3,6.7-6.4
		c7.8-0.2,15.7-0.1,23.5-0.1c3.9,0,7.8-0.2,11.8,0c19.4,1.1,38.3-14.7,42.5-33.4c0.6-2.7,0.9-5.4,0.9-8.2c0-13.2-0.2-26.4,0.1-39.6
		c0.1-7-1.1-13.6-3.9-19.9c-0.7-1.6-1.4-3.2-0.2-4.9c2.2-0.4,2.9,1.6,4.1,2.7c22.6,22.5,45.1,45,67.6,67.5c1.3,1.3,2.8,2.5,4.1,3.8
		c2.1,1,2,3.1,2.1,4.9c0.2,22.5,0.2,45,0,67.5c-0.1,4.9-1.3,6.1-6.4,6.2c-9,0.3-18,0-27,0.1c-6.2,0.1-7.3,1.2-7.4,7.5
		c-0.1,8.1-0.1,16.3,0,24.4c0.1,5.2,1.3,6.6,6.4,6.6c35.9,0.1,71.7,0.1,107.6,0c4.9,0,6.2-1.4,6.3-6.3c0.1-8.6,0.1-17.1,0-25.7
		c-0.1-5-1.5-6.3-6.6-6.4c-8.9-0.1-17.7,0.1-26.6-0.1c-6.6-0.1-7.6-1.1-7.6-7.7c-0.1-39.5-0.1-79,0-118.5c0-6.6,1-7.5,7.7-7.6
		c8.7-0.2,17.4,0,26.1-0.1c5.7-0.1,6.9-1.3,7-6.9c0.1-8.6-0.1-17.1,0.1-25.7c0-2.2-0.5-4.8,2.1-6.2c1.5,1.4,3,2.7,4.5,4.1
		c69.5,69.5,139.1,139.1,208.6,208.6C942.1,604.1,943.8,605.5,945.4,606.9z"/>
	<path class="st9" d="M392.7,409c5.6,8.9,7.2,18.6,7.1,29.1c-0.2,53.6-0.2,107.1,0,160.7c0,4-1.1,4.8-4.8,4.7
		c-11.3-0.2-22.6-0.2-34,0c-3.3,0.1-4.1-1-4-4.2c0.1-25.5,0-51.1,0.2-76.6c0-4-1.2-4.8-4.9-4.7c-11,0.2-22.1,0.3-33.1,0
		c-4.2-0.1-4.9,1.4-4.9,5.2c0.1,25.3,0,50.5,0.2,75.8c0,3.5-0.7,4.7-4.5,4.6c-12.5-0.2-25,0-37.4,0c-1.5-1.3-0.8-3-0.8-4.5
		c0-55.3-0.1-110.6,0-165.9c0-24.4,20.5-44.8,45-44.9c11.9,0,23.8,0.3,35.7-0.1c16.3-0.5,28.8,6.3,38.6,18.9
		C391.6,407.7,392.2,408.3,392.7,409z"/>
	<path class="st9" d="M567.8,409.9c5.1,8.5,6.7,17.7,6.4,27.5c-0.4,12.2,0,24.4-0.1,36.6c-0.1,23.5-20.4,43.8-43.9,44
		c-12.2,0.1-24.4,0.2-36.6-0.1c-3.8-0.1-4.9,0.9-4.9,4.8c0.2,25.4,0,50.8,0.2,76.2c0,3.7-1,4.6-4.6,4.5c-11-0.2-22.1-0.3-33.1,0
		c-4.5,0.1-5.1-1.4-5.1-5.4c0.1-44,0.1-88,0.1-131.9c0-1.9-0.1-3.8-0.2-5.6c0.1-8.8,0.2-17.7,0.2-26.5c0.1-25.5,20.3-45.7,45.8-45.8
		c11.9,0,23.8,0.2,35.7-0.1c16-0.4,28.1,6.5,37.7,18.7C566.2,407.9,567,408.9,567.8,409.9z"/>
	<path class="st9" d="M727.4,389.9c-0.1,12.2-0.3,24.4-0.1,36.6c0.1,3.7-1.1,4.6-4.6,4.5c-10.9-0.2-21.8,0-32.7-0.1
		c-2.9,0-3.6,0.9-3.6,3.7c0.1,40.8,0.1,81.6,0,122.4c0,3.2,1.1,3.8,4,3.8c11-0.1,22.1,0,33.1-0.1c2.6,0,3.9,0.4,3.8,3.5
		c-0.2,11.9-0.2,23.8,0,35.7c0,3-1.1,3.6-3.8,3.5c-38.9-0.1-77.8-0.1-116.7,0c-2.8,0-3.8-0.8-3.7-3.6c0.1-11.9,0.1-23.8,0-35.7
		c0-2.7,0.8-3.5,3.5-3.4c11.2,0.1,22.4,0,33.5,0.1c2.3,0,3.8,0,3.7-3.1c-0.2-24.5-0.2-49.1-0.2-73.6c0-4.4,0-8.7,0-13.1
		c-1.6-2.7-2-5.7-2-8.8c0-7.5,0.1-15,0-22.6c-0.1-5.4-1.2-6.6-6.7-6.7c-7.7-0.1-15.3,0-23,0c-2.6,0-5.2-0.2-7.4-1.9
		c-1.9-0.7-1.3-2.4-1.3-3.7c0-11.7,0.1-23.5-0.1-35.2c0-3,1-3.9,4-3.9c38.8,0.1,77.7,0.1,116.5,0.1
		C725,388.2,726.9,387.5,727.4,389.9z"/>
	<path class="st10" d="M604.5,431c12.2-0.1,24.3-0.1,36.5-0.2c2.4,0,2.9,1,2.9,3.1c-0.1,12.3-0.1,24.6-0.2,36.9
		c-12.6-12.5-25.3-25.1-37.9-37.6C605.1,432.7,604.9,431.8,604.5,431z"/>
	<path class="st10" d="M357.1,452.9c0,6.4-0.1,12.8,0,19.1c0,2.3-0.4,3.4-3.1,3.4c-12.2-0.1-24.4-0.1-36.5,0c-2.5,0-3.2-0.9-3.2-3.3
		c0.1-12.8,0.1-25.5,0-38.3c0-2.6,1-3.1,3.3-3.1c12,0.1,24.1,0.1,36.1,0c2.8,0,3.4,0.9,3.4,3.5C356.9,440.4,357.1,446.7,357.1,452.9
		z"/>
	<path class="st10" d="M531.4,453.5c0,6.2-0.1,12.5,0,18.7c0.1,2.5-0.8,3.2-3.2,3.2c-12-0.1-24.1-0.1-36.1,0c-2.8,0-3.4-1-3.4-3.6
		c0.1-12.5,0.1-25,0-37.4c0-2.9,0.9-3.7,3.7-3.6c11.8,0.1,23.5,0.2,35.3,0c3.2-0.1,3.9,1.1,3.8,4C531.3,441,531.4,447.2,531.4,453.5
		z"/>
</g>
</svg>
