<?xml version="1.0" encoding="utf-8"?>
<!-- Generator: Adobe Illustrator 26.3.1, SVG Export Plug-In . SVG Version: 6.00 Build 0)  -->
<svg version="1.1" id="Ebene_1" xmlns="http://www.w3.org/2000/svg" xmlns:xlink="http://www.w3.org/1999/xlink" x="0px" y="0px"
	 viewBox="0 0 64 64" style="enable-background:new 0 0 64 64;" xml:space="preserve">
<style type="text/css">
	.st0{fill:#FEFEFE;}
	.st1{fill:#1E7CBF;}
	.st2{fill:#4FB9D2;}
</style>
<g>
	<path class="st0" d="M15.8,19.1c-0.2,0.1-0.4,0.1-0.6,0.2c-4.4,1.7-8.8-0.7-9.7-5.2C5,11.2,6.7,8,9.5,6.7c2.8-1.3,6.2-0.6,8.2,1.8
		c-0.6,0.5-1.4,0.8-2,1.5c2.5,0.6,4.8,1.2,7.3,1.6c0.6-2.5,1.1-4.8,1.6-7.3c-0.9,0.4-1.5,1-2.3,1.3c-4-5-10.1-6-15-3.7
		C2.4,4.2-0.6,9.5,0.4,15.2c0.9,5,5.3,9.2,10.8,9.9c-0.2,0.5-0.5,1-0.7,1.4c-2,4.1-2.6,8.5-2.1,13.1c0.3,2.3,0.9,4.4,1.8,6.5
		c-0.9,0.3-1.7,0.7-2.8,1c2.7,1.3,5.2,2.5,7.9,3.7c1.2-2.6,2.5-5.2,3.7-7.8c-1.1,0.2-1.9,0.7-2.8,0.8c-1.5-3.2-1.9-6.5-1.4-9.9
		c1.4-9.6,10.7-16.3,20.3-14.6c8.9,1.6,15.3,9.9,14.3,19c-0.9,8.4-8.1,15.4-16.6,15.6c-8.6,0.1-17.1,0-25.7,0.1
		c-0.4,0-0.8-0.1-1.2,0.1c0,2.1,0,4.1,0,6.2c0.3,0,0.4,0,0.6,0c8.7,0,17.4,0.1,26.1,0c7.3-0.1,13.3-3.1,17.8-8.7
		c6.2-7.8,7.2-16.5,2.9-25.6c-4.7-10-16.4-15.3-27.1-12.6C22.3,14.6,18.9,16.6,15.8,19.1z M63.8,57.5c-1.9-1.9-3.9-3.9-5.8-5.8
		c0,0.6,0,1.4,0,2.3c-0.4,0-0.8,0-1.1,0c-1.4,0-2.9,0-4.3,0c-0.5,0-0.8,0.1-1.2,0.5c-2,2.2-4.3,3.9-6.8,5.3
		c-0.3,0.1-0.6,0.2-0.8,0.6c4.8,0,9.5,0,14.3,0c0,1,0,1.9,0,2.8C60.1,61.3,62,59.3,63.8,57.5z"/>
	<path class="st1" d="M15.8,19.1c3.1-2.5,6.4-4.5,10.3-5.5c10.7-2.8,22.4,2.5,27.1,12.6c4.3,9.1,3.3,17.7-2.9,25.6
		c-4.5,5.6-10.6,8.6-17.8,8.7c-8.7,0.1-17.4,0-26.1,0c-0.2,0-0.4,0-0.6,0c0-2.1,0-4.1,0-6.2C6.2,54,6.6,54.1,7,54.1
		c8.6,0,17.1,0.1,25.7-0.1c8.5-0.1,15.8-7.1,16.6-15.6c0.9-9.1-5.4-17.4-14.3-19c-9.5-1.7-18.8,4.9-20.3,14.6
		c-0.5,3.4-0.1,6.7,1.4,9.9c1-0.1,1.7-0.6,2.8-0.8c-1.3,2.7-2.5,5.2-3.7,7.8c-2.6-1.2-5.1-2.4-7.9-3.7c1-0.4,1.9-0.7,2.8-1
		c-0.8-2.1-1.5-4.3-1.8-6.5c-0.5-4.6,0.1-8.9,2.1-13.1c0.2-0.5,0.5-1,0.7-1.4c1.1-1.8,2.3-3.5,3.8-5C15.3,19.8,15.8,19.6,15.8,19.1z
		"/>
	<path class="st2" d="M15.8,19.1c-0.1,0.5-0.6,0.7-0.9,1c-1.5,1.5-2.7,3.2-3.8,5c-5.4-0.6-9.9-4.8-10.8-9.9c-1-5.7,2-11.1,6.9-13.4
		c4.9-2.3,10.9-1.3,15,3.7c0.8-0.2,1.4-0.9,2.3-1.3c-0.6,2.5-1.1,4.8-1.6,7.3c-2.5-0.4-4.8-1-7.3-1.6c0.6-0.7,1.4-0.9,2-1.5
		c-1.9-2.4-5.4-3.1-8.2-1.8C6.7,8,5,11.2,5.6,14.1c0.9,4.6,5.3,7,9.7,5.2C15.4,19.2,15.6,19.2,15.8,19.1z"/>
	<path class="st2" d="M63.8,57.5c-1.8,1.8-3.7,3.7-5.8,5.8c0-0.9,0-1.8,0-2.8c-4.8,0-9.5,0-14.3,0c0.2-0.4,0.5-0.5,0.8-0.6
		c2.6-1.4,4.8-3.1,6.8-5.3c0.4-0.4,0.7-0.5,1.2-0.5c1.4,0,2.9,0,4.3,0c0.3,0,0.7,0,1.1,0c0-0.9,0-1.7,0-2.3
		C59.9,53.6,61.8,55.6,63.8,57.5z"/>
</g>
</svg>
