<?xml version="1.0" encoding="utf-8"?>
<!-- Generator: Adobe Illustrator 26.3.1, SVG Export Plug-In . SVG Version: 6.00 Build 0)  -->
<svg version="1.1" id="Ebene_1" xmlns="http://www.w3.org/2000/svg" xmlns:xlink="http://www.w3.org/1999/xlink" x="0px" y="0px"
	 viewBox="0 0 64 64" style="enable-background:new 0 0 64 64;" xml:space="preserve">
<style type="text/css">
	.st0{fill:url(#Ellipse_5_00000011746131164254734170000005610685265624055968_);}
	.st1{fill:#FFFFFF;}
</style>
<linearGradient id="Ellipse_5_00000107552442851252728910000008097820453308674740_" gradientUnits="userSpaceOnUse" x1="-465.7563" y1="531.3171" x2="-465.9621" y2="531.4527" gradientTransform="matrix(260 0 0 -260 121155.3594 138192.0625)">
	<stop  offset="0" style="stop-color:#5CAD8D"/>
	<stop  offset="1" style="stop-color:#A1D0BC"/>
</linearGradient>
<circle id="Ellipse_5" style="fill:url(#Ellipse_5_00000107552442851252728910000008097820453308674740_);" cx="32" cy="32" r="32"/>
<g>
	<g>
		<g>
			<path class="st1" d="M18.6,26.1l-0.8,1.8c0.5,0.5,0.7,1,0.4,1.6c-1.1,2.2-3.8,5.8-3.8,5.8l-0.2-0.1l3.3-7.2
				c-0.4-0.3-0.9-0.6-1.3-1c-0.6-0.4-1.2-0.8-1.6-1.2c-0.5-0.6-0.5-1.1,0.4-1.8c0.7-0.6,1.9-0.9,3.4-0.9c1.8-0.1,4,0.2,5.9,0.7
				c2,0.6,3.8,1.5,4.7,2.7c0.5,0.6,0.8,1.3,0.8,2.1v0.1c0,2-2.1,4.1-4.9,5.6c-1.8,1-3.8,1.8-5.9,2.2c4.4,0,8.4,0.2,8.8,0.9l-0.2,0.1
				c-0.4-0.7-5-0.8-9.7-0.8c-0.9,0.2-1.7,0.3-2.5,0.3c-0.2,0-0.3,0-0.4,0c-6.2,0.1-7.4,0-7.4,0l0-0.3c0,0,5.1-0.3,10.2-0.3
				c2.4-0.4,5-1.3,7.1-2.5c2.8-1.5,4.8-3.5,4.8-5.4v-0.1c0-0.7-0.3-1.3-0.8-1.9c-0.9-1.2-2.7-2.1-4.6-2.6c-1.9-0.6-4.1-0.8-5.8-0.7
				c-1.4,0.1-2.6,0.4-3.3,0.9c-0.7,0.6-0.7,1-0.3,1.5c0.3,0.4,0.9,0.8,1.5,1.2c0.5,0.3,0.9,0.6,1.3,0.9l0.8-1.7L18.6,26.1z
				 M14.9,36.8c0.1,0,0.2,0,0.4,0c-0.4,0-0.8,0-1.2,0L14.9,36.8z M17.7,28.2L15,34c0.9-1.3,2.2-3.3,2.9-4.6
				C18.1,28.9,18,28.6,17.7,28.2z"/>
			<path class="st1" d="M27.5,37.5L27.5,37.5c-0.3-0.6-3.6-0.8-9.7-0.8c-0.9,0.2-1.7,0.3-2.5,0.3h-0.4c-6.2,0.1-7.4,0-7.4,0l0,0
				l0-0.3h0c0,0,0,0,0.1,0c1.3-0.1,5.7-0.3,10.1-0.3c2.4-0.4,4.9-1.3,7.1-2.5c3.1-1.7,4.8-3.7,4.8-5.4v-0.1c0-0.7-0.3-1.3-0.8-1.9
				c-0.9-1.1-2.5-2-4.6-2.6c-1.9-0.6-4-0.8-5.8-0.7c-1.5,0.1-2.7,0.4-3.3,0.9c-0.3,0.3-0.5,0.5-0.5,0.8c0,0.2,0.1,0.4,0.2,0.6
				c0.3,0.4,0.9,0.8,1.5,1.2c0.5,0.3,0.9,0.6,1.3,0.9l0.8-1.7l0.3,0.1l-0.8,1.8c0.5,0.5,0.6,1.1,0.4,1.6c-0.6,1.2-1.9,3.1-3.6,5.6
				c-0.1,0.1-0.2,0.2-0.2,0.2v0l-0.3-0.2l0,0l3.3-7.2c-0.4-0.3-0.9-0.6-1.3-0.9L16,26.9c-0.6-0.4-1.1-0.7-1.5-1.1
				c-0.5-0.6-0.4-1.2,0.4-1.9c0.7-0.5,1.9-0.9,3.4-0.9c1.9-0.1,4,0.2,5.9,0.7c2.2,0.6,3.9,1.6,4.8,2.7c0.5,0.6,0.8,1.3,0.9,2.1v0.1
				c0,1.9-1.8,4-5,5.7c-1.7,0.9-3.7,1.7-5.7,2.2c5.5,0,8.3,0.3,8.6,0.9l0,0L27.5,37.5z M19.7,36.7c5,0,7.5,0.3,7.9,0.8l0.2-0.1
				c-0.4-0.6-3.3-0.9-8.8-0.9h-0.3l0.2-0.1c2-0.5,4.1-1.3,5.9-2.2c3.2-1.7,5-3.8,4.9-5.6v-0.1c0-0.7-0.3-1.4-0.8-2
				c-0.9-1.1-2.6-2.1-4.7-2.7c-1.9-0.6-4.1-0.8-5.9-0.7c-1.5,0.1-2.8,0.4-3.4,0.9c-1,0.8-0.7,1.4-0.3,1.8c0.3,0.4,0.9,0.8,1.5,1.1
				l0.1,0.1c0.5,0.3,1,0.6,1.4,1l0,0l0,0l-3.3,7.2l0.2,0.1c0,0,0.1-0.1,0.2-0.2c1.7-2.5,2.9-4.4,3.6-5.6c0.3-0.5,0.1-1-0.4-1.5l0,0
				l0,0l0.8-1.7l-0.2-0.1l-0.8,1.7l0,0c-0.4-0.3-0.9-0.6-1.3-0.9c-0.6-0.4-1.2-0.8-1.5-1.2c-0.2-0.2-0.3-0.5-0.2-0.7
				c0-0.3,0.2-0.5,0.6-0.8c0.6-0.5,1.8-0.8,3.3-0.9c1.9-0.1,4,0.2,5.9,0.7c2.1,0.6,3.7,1.5,4.6,2.6c0.5,0.6,0.8,1.2,0.8,1.9v0.1
				c0,1.8-1.7,3.7-4.8,5.4c-2.2,1.2-4.7,2-7.1,2.5c-4.4,0-8.9,0.2-10.1,0.3c0,0,0,0,0,0l0,0.2c0.2,0,1.7,0.1,7.3,0h0.4
				c0.8,0,1.7-0.2,2.5-0.3C18.5,36.7,19.1,36.7,19.7,36.7z M14.1,36.8L14.1,36.8c0.2-0.1,0.4-0.1,0.6-0.1c0.1,0,0.3,0,0.4,0
				c0,0,0.1,0,0.2,0v0.1c0,0-0.1,0-0.2,0c0,0,0,0,0,0c-0.1,0-0.1,0-0.2,0L14.1,36.8z M15,34L15,34l2.6-5.9l0,0
				c0.4,0.4,0.5,0.8,0.3,1.2C17.2,30.7,16,32.6,15,34z M17.7,28.2l-2.5,5.5c0.9-1.3,2-3.1,2.7-4.3C18.1,29,18,28.6,17.7,28.2z"/>
		</g>
		<g>
			<path class="st1" d="M32.1,31.5c-0.4,0.4-1.1,0.4-1.4,0.3c-0.1,0.3-0.2,0.6-0.2,0.8c0,0.2,0.1,0.3,0.2,0.4
				c0.1,0.1,0.3,0.2,0.6,0.2c0.7,0,1.8-0.5,3.7-1.7l0.1,0.2c-1.9,1.2-3.1,1.7-3.8,1.7c-0.4,0-0.6-0.1-0.8-0.2s-0.2-0.4-0.3-0.6
				c0-0.4,0.1-0.8,0.3-1.1c0.3-0.5,0.8-0.7,1.2-0.7c0.1,0,0.2,0,0.3,0c0.1,0,0.2,0.1,0.2,0.2C32.3,31.3,32.2,31.4,32.1,31.5z
				 M30.9,31.6c0.3,0,0.7,0,1-0.3c0,0,0.1-0.1,0.1-0.1c0,0,0,0,0,0c0,0-0.1,0-0.2,0C31.5,31.2,31.2,31.3,30.9,31.6z"/>
			<path class="st1" d="M31.2,33.5c-0.3,0-0.5-0.1-0.7-0.2c-0.2-0.1-0.2-0.3-0.3-0.6c0-0.4,0.1-0.8,0.3-1.1c0.3-0.5,0.8-0.7,1.2-0.7
				l0,0c0.1,0,0.2,0,0.3,0.1c0.1,0,0.2,0.1,0.2,0.2c0,0.1,0,0.3-0.1,0.4l0,0c-0.4,0.4-1,0.4-1.4,0.3c-0.1,0.2-0.2,0.5-0.2,0.8
				c0,0.1,0,0.3,0.2,0.4c0.1,0.1,0.3,0.1,0.6,0.1c0.8,0,2-0.6,3.7-1.7l0,0l0.2,0.3l0,0C33.4,32.9,32.1,33.5,31.2,33.5
				C31.2,33.5,31.2,33.5,31.2,33.5z M31.8,30.9c-0.3,0-0.8,0.2-1.2,0.7c-0.2,0.3-0.3,0.7-0.3,1.1c0,0.2,0.1,0.4,0.2,0.6
				c0.2,0.2,0.4,0.2,0.7,0.2c0.8,0,2.1-0.6,3.8-1.7l-0.1-0.2c-1.6,1.1-2.9,1.6-3.7,1.7l0,0c-0.3,0-0.5-0.1-0.6-0.2
				c-0.1-0.1-0.2-0.3-0.2-0.4c0-0.3,0.1-0.6,0.2-0.9l0,0l0,0c0,0,0.9,0.2,1.4-0.3c0.1-0.1,0.1-0.2,0.1-0.3c0-0.1-0.1-0.1-0.2-0.2
				C32,31,31.9,30.9,31.8,30.9z M31,31.6c0,0-0.1,0-0.2,0l-0.1,0l0,0c0.3-0.3,0.7-0.4,0.9-0.4c0.1,0,0.1,0,0.2,0c0,0,0,0,0,0
				c0,0,0,0,0,0c0,0,0,0.1-0.1,0.1C31.7,31.5,31.4,31.6,31,31.6z M31,31.6c0.4,0,0.7-0.1,0.9-0.3c0,0,0.1-0.1,0.1-0.1h0c0,0,0,0,0,0
				c0,0-0.1,0-0.1,0C31.6,31.2,31.2,31.3,31,31.6z"/>
		</g>
		<g>
			<path class="st1" d="M34.7,31.8l1-0.9c0.1-0.1,0.2-0.2,0.2-0.2l0.2,0.2L35.8,31c-0.3,0.3-0.7,0.9-0.4,1.5c0,0,0,0.1,0,0.1l0,0
				c0.2-0.2,0.4-0.3,0.6-0.4c1.4-0.7,1.9-0.7,1.9-0.7l0,0.3c0,0-0.5,0-1.8,0.7c-0.3,0.1-0.5,0.3-0.7,0.5c0,0.4,0,0.8-0.2,1
				c-0.2,0.4-0.5,0.6-0.8,0.7l0,0c-0.1,0-0.2,0-0.2,0c-0.1-0.1-0.1-0.2-0.1-0.3c0-0.1,0.1-0.2,0.1-0.4c0.2-0.4,0.5-0.8,0.9-1.2
				c0,0,0-0.1,0-0.2c0,0,0,0,0-0.1c-0.1-0.4-0.1-0.7,0-1l-0.3,0.3L34.7,31.8z M35,34c0.1-0.2,0.2-0.4,0.2-0.7
				c-0.3,0.3-0.6,0.7-0.7,1c0,0.1-0.1,0.2-0.1,0.3c0,0,0,0,0,0C34.6,34.5,34.9,34.3,35,34z"/>
			<path class="st1" d="M34.4,34.9c-0.1,0-0.1,0-0.1,0c-0.1-0.1-0.1-0.2-0.1-0.3l0-0.1c0-0.1,0.1-0.2,0.1-0.3
				c0.2-0.4,0.5-0.8,0.9-1.2c0,0,0-0.1,0-0.2c0,0,0,0,0,0c0,0,0,0,0,0l0,0c-0.1-0.3-0.1-0.6,0-0.9L34.9,32l-0.2-0.2l1-0.9
				c0.1-0.1,0.2-0.2,0.2-0.2l0,0l0.2,0.2l-0.3,0.2c-0.2,0.2-0.7,0.8-0.4,1.5c0,0,0,0,0,0.1c0,0,0,0,0,0l0,0c0.2-0.1,0.4-0.3,0.6-0.4
				c1.4-0.7,1.9-0.7,1.9-0.7h0l0,0.3h0c0,0-0.5,0-1.8,0.7c-0.2,0.1-0.5,0.3-0.7,0.5c0,0.4,0,0.7-0.2,1c-0.2,0.3-0.5,0.6-0.8,0.7l0,0
				C34.4,34.9,34.4,34.9,34.4,34.9z M35.2,32.7C35.2,32.7,35.2,32.7,35.2,32.7C35.2,32.7,35.2,32.7,35.2,32.7
				c0.1,0.1,0.1,0.2,0.1,0.3l0,0l0,0c-0.4,0.4-0.7,0.8-0.9,1.2c-0.1,0.1-0.1,0.2-0.1,0.3l0,0c0,0.1,0,0.2,0.1,0.3c0.1,0,0.1,0,0.2,0
				l0,0c0.3-0.1,0.6-0.4,0.8-0.7c0.2-0.3,0.2-0.7,0.2-1v0l0,0c0.2-0.2,0.5-0.4,0.7-0.5c1.2-0.6,1.7-0.7,1.8-0.7l0-0.2
				c-0.1,0-0.7,0.1-1.9,0.7c-0.2,0.1-0.4,0.3-0.6,0.4l0,0l0,0l0,0c0,0,0,0,0-0.1c0,0,0,0,0,0c-0.3-0.7,0.2-1.4,0.4-1.6l0.2-0.2
				l-0.1-0.1c0,0-0.1,0.1-0.2,0.2l-0.9,0.9l0.1,0.1l0.3-0.3l0,0.1C35,32,35,32.3,35.2,32.7z M34.4,34.6L34.4,34.6
				C34.4,34.5,34.4,34.5,34.4,34.6c0-0.2,0.1-0.3,0.1-0.4c0.1-0.3,0.4-0.6,0.7-1l0-0.1v0.1c0,0.3-0.1,0.5-0.2,0.7
				C34.9,34.3,34.7,34.5,34.4,34.6L34.4,34.6z M35.2,33.4c-0.3,0.3-0.5,0.6-0.6,0.9c0,0.1-0.1,0.2-0.1,0.3c0.2-0.1,0.4-0.3,0.6-0.6
				l0,0C35.1,33.8,35.2,33.6,35.2,33.4z"/>
		</g>
		<g>
			<path class="st1" d="M37.9,31.5L37.9,31.5c0.1-0.2,0.2-0.3,0.2-0.3l0.2,0.1l-0.2,0.3c-0.2,0.4-0.5,1-0.3,1.1
				c0.1,0.1,0.3,0.1,0.7,0c0.4-0.2,1.1-0.5,2.1-1.1l0.1,0.2c-1,0.6-1.7,1-2.1,1.1c-0.5,0.2-0.8,0.1-0.9,0
				C37.4,32.7,37.7,31.9,37.9,31.5z M38.7,29.3c0.1,0,0.2,0.1,0.3,0.2c0.1,0.1,0.2,0.2,0.2,0.3c0,0.1,0,0.3-0.2,0.3
				c-0.1,0.1-0.2,0.1-0.3,0.1s-0.3,0-0.3-0.1c-0.1-0.1-0.1-0.2-0.1-0.3c0-0.1,0-0.2,0.1-0.3C38.5,29.4,38.6,29.3,38.7,29.3z
				 M38.9,29.6c0,0-0.1-0.1-0.1-0.1c0,0-0.1,0-0.2,0.1c0,0,0,0.1,0,0.1c0,0.1,0,0.1,0,0.2c0,0,0.1,0,0.2,0c0,0,0.1,0,0.1,0
				c0,0,0.1-0.1,0.1-0.2C38.9,29.7,38.9,29.7,38.9,29.6z"/>
			<path class="st1" d="M38.1,33.1c-0.2,0-0.3,0-0.4-0.1c-0.2-0.2-0.2-0.7,0.2-1.5v0l0-0.1c0.1-0.1,0.1-0.2,0.1-0.2l0,0l0.3,0.2
				l-0.2,0.3c-0.3,0.6-0.4,1-0.3,1.1c0.1,0.1,0.3,0.1,0.6,0c0.4-0.1,1-0.4,2-1.1l0,0l0.2,0.3l0,0c-0.9,0.6-1.6,1-2.1,1.1
				C38.4,33,38.3,33.1,38.1,33.1z M38,31.5c-0.4,0.9-0.4,1.3-0.2,1.4c0.1,0.1,0.4,0.2,0.9,0c0.5-0.1,1.2-0.5,2.1-1.1l-0.1-0.2
				c-1,0.7-1.7,1-2,1.1c-0.3,0.1-0.6,0.1-0.7,0c-0.1-0.1-0.1-0.5,0.3-1.1l0.1-0.3l-0.2-0.1C38.1,31.2,38.1,31.3,38,31.5L38,31.5z
				 M38.7,30.3c-0.1,0-0.3,0-0.4-0.1c-0.1-0.1-0.1-0.2-0.1-0.4c0-0.1,0.1-0.3,0.1-0.3c0.1-0.1,0.2-0.2,0.4-0.2
				c0.2,0,0.3,0.1,0.3,0.2c0.1,0.1,0.2,0.2,0.2,0.3c0,0.1-0.1,0.3-0.2,0.4C39,30.2,38.9,30.3,38.7,30.3z M38.7,29.3
				c-0.2,0-0.3,0.1-0.3,0.1c-0.1,0.1-0.1,0.2-0.1,0.3c0,0.1,0,0.2,0.1,0.3c0.1,0.1,0.2,0.1,0.3,0.1c0.1,0,0.2,0,0.3-0.1
				c0.1-0.1,0.1-0.2,0.1-0.3c0-0.1,0-0.2-0.1-0.3C38.9,29.4,38.9,29.3,38.7,29.3z M38.7,30c-0.1,0-0.1,0-0.2-0.1s-0.1-0.1-0.1-0.2
				c0-0.1,0-0.1,0.1-0.2c0-0.1,0.1-0.1,0.2-0.1c0.1,0,0.1,0,0.2,0.1c0,0,0.1,0.1,0.1,0.2c0,0.1,0,0.1-0.1,0.2
				C38.9,30,38.8,30,38.7,30z M38.7,29.6c0,0-0.1,0-0.1,0.1c0,0,0,0.1,0,0.1c0,0.1,0,0.1,0,0.1c0,0,0.1,0,0.1,0s0.1,0,0.1,0
				c0,0,0.1-0.1,0.1-0.1c0,0,0-0.1-0.1-0.1l0,0C38.8,29.6,38.8,29.6,38.7,29.6z"/>
		</g>
		<g>
			<path class="st1" d="M43.3,32.4c0,0-0.1-0.2-0.2-0.4l-0.3,0.1c-1.1,0.7-2.3,1.4-2.6,1.1c-0.1,0-0.2-0.2-0.2-0.3
				c0-0.2,0-0.4,0-0.6c0.1-0.2,0.2-0.4,0.3-0.6c0.3-0.4,0.7-0.8,1.2-0.9c0.7-0.2,1.2,0.3,1.5,0.7c0.7-0.4,1.3-0.8,1.7-0.8
				c0.1,0,0.2,0,0.3,0c0.2,0.1,0.4,0.3,0.5,0.6c0.1,0.3,0.1,0.7,0.1,1.2c0,0.4-0.1,0.9-0.2,1.4c1.3-0.8,2.9-1.7,4.9-2.5l0.1,0.2
				c-2.1,0.9-3.8,1.8-5.1,2.6c-0.2,0.8-0.6,1.6-1,2.5c-0.2,0.4-0.4,0.8-0.7,1.2c-0.7,1.2-1.3,1.9-1.8,2.3c-0.5,0.4-0.9,0.5-1.2,0.4
				l0,0c0,0-0.1-0.1-0.1-0.2c-0.1-0.2-0.1-0.5,0-0.9c0.1-0.4,0.3-0.9,0.7-1.5c0.7-1.1,1.9-2.5,3.9-3.9c0.2-0.6,0.3-1.2,0.3-1.7
				s0-0.9-0.1-1.1c-0.1-0.3-0.2-0.4-0.3-0.4c0,0-0.1,0-0.1,0c-0.3,0.1-0.9,0.4-1.6,0.8c0.2,0.2,0.3,0.4,0.3,0.4L43.3,32.4z
				 M42.9,31.8c-0.3-0.4-0.7-0.7-1.2-0.6c-0.4,0.1-0.8,0.4-1,0.8c-0.1,0.2-0.2,0.4-0.3,0.6c0,0.2-0.1,0.3,0,0.4c0,0.1,0,0.1,0.1,0.1
				c0.2,0.1,1.2-0.5,2.3-1.1L42.9,31.8z M44.1,36.8c0.4-0.7,0.7-1.4,0.9-2.1c-1.8,1.3-2.9,2.6-3.6,3.6c-0.3,0.6-0.5,1.1-0.6,1.5
				c-0.1,0.4-0.1,0.6,0,0.8c0,0,0,0,0,0h0c0.2,0.1,0.5,0,0.9-0.3c0.5-0.4,1-1.1,1.8-2.3C43.6,37.6,43.9,37.2,44.1,36.8z"/>
			<path class="st1" d="M40.9,40.9c-0.1,0-0.2,0-0.3-0.1l0,0c-0.1,0-0.1-0.1-0.1-0.2c-0.1-0.2-0.1-0.6,0-1c0.1-0.5,0.4-1,0.7-1.5
				c0.6-0.9,1.7-2.4,3.9-3.9c0.2-0.6,0.3-1.1,0.3-1.6c0-0.5,0-0.8-0.1-1.1c-0.1-0.2-0.2-0.4-0.3-0.4c0,0,0,0,0,0c0,0-0.1,0-0.1,0
				c-0.3,0.1-0.8,0.3-1.5,0.8c0.1,0.2,0.2,0.4,0.2,0.4l0,0l-0.3,0.2v0c0,0-0.1-0.2-0.2-0.4l-0.2,0.1c-1.1,0.7-2.3,1.4-2.6,1.1
				c-0.1-0.1-0.2-0.2-0.2-0.3c0-0.2,0-0.4,0-0.6c0.1-0.2,0.2-0.4,0.3-0.6c0.3-0.5,0.8-0.8,1.2-0.9c0.5-0.1,1,0.1,1.5,0.7l0.2-0.1
				c0.6-0.4,1.2-0.7,1.5-0.7c0.1,0,0.2,0,0.3,0c0.2,0.1,0.4,0.3,0.5,0.6c0.1,0.3,0.1,0.7,0.1,1.2c0,0.5-0.1,0.9-0.2,1.3
				c1.4-0.9,3.1-1.7,4.8-2.5l0,0l0.1,0.3l0,0c-2,0.8-3.7,1.7-5.1,2.6c-0.2,0.8-0.6,1.6-1,2.5c-0.2,0.5-0.5,0.9-0.7,1.2
				c-0.6,1.1-1.2,1.9-1.8,2.3C41.5,40.7,41.2,40.9,40.9,40.9z M44.9,31C45,31,45,31,44.9,31C45,31,45,31,44.9,31L44.9,31
				c0.2,0,0.3,0.2,0.4,0.5c0.1,0.3,0.1,0.7,0.1,1.1c0,0.5-0.1,1.1-0.3,1.7l0,0l0,0c-2.2,1.5-3.3,2.9-3.9,3.9
				c-0.3,0.5-0.6,1.1-0.7,1.5c-0.1,0.4-0.1,0.7,0,0.9c0,0.1,0.1,0.1,0.1,0.1l0,0c0.3,0.1,0.7,0,1.2-0.4c0.6-0.5,1.2-1.3,1.8-2.3
				c0.2-0.3,0.4-0.7,0.7-1.2c0.5-0.8,0.8-1.7,1-2.5l0,0l0,0c1.4-0.9,3.1-1.8,5.1-2.6l-0.1-0.2c-1.8,0.7-3.4,1.5-4.9,2.5l-0.1,0
				l0-0.1c0.1-0.4,0.2-0.9,0.2-1.4c0-0.5,0-0.9-0.1-1.2c-0.1-0.3-0.3-0.5-0.5-0.6c-0.1,0-0.2,0-0.2,0c-0.3,0.1-0.9,0.4-1.5,0.7
				l-0.2,0.1l0,0c-0.5-0.6-1-0.8-1.5-0.7c-0.4,0.1-0.9,0.4-1.2,0.9c-0.1,0.2-0.2,0.4-0.3,0.6c-0.1,0.2-0.1,0.4,0,0.6
				c0,0.1,0.1,0.2,0.2,0.3c0.3,0.2,1.5-0.5,2.5-1.1l0.3-0.1l0,0c0.1,0.2,0.2,0.3,0.2,0.4l0.2-0.1c0-0.1-0.1-0.2-0.2-0.4l0,0l0,0
				C44.1,31.4,44.6,31.1,44.9,31C44.9,31,44.9,31,44.9,31z M40.9,40.6c-0.1,0-0.1,0-0.2,0h0v0l0,0c0,0,0,0,0,0l0,0
				c-0.1-0.2,0-0.5,0-0.8c0.1-0.4,0.3-0.9,0.6-1.5c0.5-0.9,1.5-2.2,3.6-3.6l0.1,0l0,0.1c-0.2,0.6-0.5,1.4-0.9,2.1l0,0
				c-0.2,0.4-0.5,0.8-0.7,1.2c-0.6,1.1-1.3,1.9-1.8,2.3C41.3,40.5,41.1,40.6,40.9,40.6z M40.8,40.5L40.8,40.5L40.8,40.5
				c0.2,0.1,0.5,0,0.9-0.3c0.5-0.4,1.1-1.2,1.7-2.3c0.2-0.3,0.4-0.7,0.7-1.2c0.4-0.7,0.7-1.4,0.9-2c-2,1.4-3,2.7-3.5,3.6
				c-0.4,0.7-0.6,1.2-0.6,1.5C40.7,40.1,40.7,40.4,40.8,40.5C40.8,40.5,40.8,40.5,40.8,40.5z M40.5,33.1
				C40.5,33.1,40.4,33.1,40.5,33.1c-0.1,0-0.1-0.1-0.2-0.2c0-0.1,0-0.3,0-0.4c0-0.2,0.1-0.3,0.3-0.6c0.3-0.4,0.6-0.7,1-0.8
				c0.6-0.1,1,0.3,1.3,0.6l0,0L42.7,32C41.5,32.7,40.8,33.1,40.5,33.1z M41.9,31.2c-0.1,0-0.1,0-0.2,0c-0.4,0.1-0.7,0.4-1,0.8
				c-0.1,0.2-0.2,0.4-0.3,0.6c0,0.2-0.1,0.3,0,0.4c0,0.1,0,0.1,0.1,0.1c0.2,0.1,1.2-0.5,2.2-1.1l0.3-0.2
				C42.7,31.5,42.3,31.2,41.9,31.2z"/>
		</g>
		<g>
			<path class="st1" d="M50.8,30.9l-0.7,1.6c0.5-0.6,1.2-1.4,1.7-1.3c0.4,0.1,0.4,0.5,0.4,0.9c0,0.1,0,0.2,0,0.3
				c-0.1,0.3-0.1,0.6,0,0.7c0.1,0.1,0.4,0.3,1.2-0.3l1.3-1.1l0.2,0.2L53.4,33c-0.9,0.7-1.4,0.6-1.6,0.3c-0.1-0.2-0.1-0.6,0-0.9
				c0-0.1,0-0.2,0-0.3c0-0.3,0-0.6-0.2-0.6c-0.6-0.1-2,2-2,2l-0.2-0.1l1.1-2.6L50.8,30.9z"/>
			<path class="st1" d="M49.8,33.6l-0.3-0.2l0,0l1.1-2.6l0.3,0.1l-0.6,1.5c0.7-0.8,1.2-1.2,1.6-1.2c0.5,0.1,0.5,0.5,0.4,0.9
				c0,0.1,0,0.1,0,0.2l0,0c-0.1,0.3-0.1,0.6,0,0.7c0,0,0.1,0.1,0.2,0.1c0.2,0,0.5,0,1-0.4l1.4-1.1l0.2,0.2l0,0L53.5,33
				c-0.5,0.4-0.9,0.5-1.2,0.5c-0.2,0-0.3-0.1-0.4-0.2c-0.1-0.2-0.1-0.5,0-0.8l0-0.1c0,0,0-0.1,0-0.1c0-0.1,0-0.1,0-0.2
				c0.1-0.4,0-0.5-0.1-0.6c0,0,0,0,0,0C51.1,31.5,49.9,33.4,49.8,33.6L49.8,33.6L49.8,33.6z M49.5,33.4l0.2,0.1
				c0.1-0.2,0.9-1.2,1.4-1.7c0.3-0.2,0.5-0.3,0.6-0.3c0.2,0,0.2,0.3,0.2,0.6c0,0.1,0,0.1,0,0.2c0,0,0,0.1,0,0.1l0,0.1
				c0,0.3-0.1,0.6,0,0.8c0.1,0.1,0.2,0.2,0.3,0.2c0.3,0,0.7-0.1,1.2-0.5l1.4-1.1l-0.2-0.1l-1.3,1.1c-0.5,0.4-0.8,0.5-1,0.4
				c-0.1,0-0.2-0.1-0.2-0.1c-0.1-0.1-0.1-0.4,0-0.7l0,0c0-0.1,0-0.2,0-0.2c0.1-0.5,0-0.8-0.3-0.9c0,0,0,0-0.1,0
				c-0.3,0-0.9,0.4-1.6,1.3L50,32.7l0.7-1.8l-0.2-0.1L49.5,33.4z"/>
		</g>
	</g>
	<path class="st1" d="M7.5,34.5l1.4-1.7c0.1-0.1,0.4-0.4,0.5-0.6c0.2-0.3,0.2-0.4,0.2-0.6c0-0.4-0.3-0.8-0.8-0.8
		c-0.3,0-0.5,0.1-0.7,0.3C8.1,31.4,8,31.5,8,31.7H7.6c0-0.4,0.1-0.6,0.3-0.8c0.2-0.2,0.4-0.4,0.9-0.4c0.7,0,1.2,0.5,1.2,1.2
		c0,0.3-0.1,0.5-0.3,0.8c-0.2,0.2-0.4,0.5-0.5,0.7l-0.8,0.9H10v0.4H7.5z"/>
	<path class="st1" d="M12.7,31h-2.1v-0.4h2.9l-2.6,4l-0.3-0.2L12.7,31z"/>
	<path class="st1" d="M8.4,39.4H7.7L7.9,39h0.8v3.8H8.4V39.4z"/>
	<path class="st1" d="M10.4,42.6l0.9-1.2c-0.1,0-0.2,0-0.3,0c-0.7,0-1.2-0.5-1.2-1.2c0-0.8,0.5-1.3,1.3-1.3c0.9,0,1.3,0.7,1.3,1.3
		c0,0.1,0,0.5-0.3,0.9l-1.3,1.8L10.4,42.6z M10.2,40.2c0,0.5,0.4,0.9,0.9,0.9c0.5,0,0.9-0.4,0.9-0.9c0-0.5-0.4-0.9-0.9-0.9
		C10.5,39.3,10.2,39.7,10.2,40.2z"/>
	<g>
		<path class="st1" d="M54.9,31.8l-0.2-0.2c1.3-1.1,1.8-2.3,1.5-3.4c-1.2-3.6-11.1-6.2-20-6.7c-7.3-0.4-15.7,0.6-17.4,4.6L18.4,26
			c1.6-3.5,8.2-5.2,17.8-4.7c4.7,0.2,9.5,1,13.2,2.2c2.9,0.9,6.4,2.4,7.2,4.7C56.8,29.4,56.3,30.6,54.9,31.8z"/>
	</g>
</g>
</svg>
